<svg version="1" xmlns="http://www.w3.org/2000/svg" viewBox="0 0 332 250"  width="53.87" height="43.61" color-interpolation-filters="sRGB" style="margin:auto"><rect width="100%" height="100%" fill="transparent" class="background"/><rect width="100%" height="100%" fill="transparent"/><path d="M71.3 132.375l14.9-27.56h6.39l-21.95 40.37h-1.43l-13.42-40.37h6.38l9.13 27.56zm24.26-15.24l-2.97 28.05h24.64l1.92-5.67H99.02l.55-5.71h20.19l1.75-16.67H95.56zm19.46 11.44h-14.9l.61-5.72h14.9l-.61 5.72zm22-11.44h7.32l-15.84 15.95-1.27 12.1h-5.72l2.92-28.05h5.72l-.83 7.98 7.7-7.98zm7.32 28.05l2.92-28.05h30.63l-3.03 28.05h-5.72l2.37-22.33h-6.6l-2.42 22.33h-5.72l2.36-22.33h-6.65l-2.42 22.33h-5.72zm33.55 0l2.92-28.05h25.57l-3.03 28.05h-25.46zm8.14-22.33l-1.82 16.66h14.03l1.76-16.66h-13.97zm40.7 16.66l2.37-22.38h5.77l-3.02 28.05h-25.47l2.91-28.05h5.84l-2.43 22.38h14.03zm14.8-16.72l-2.37 22.39h10.89l1.93-5.67h-6.49l1.81-16.72h7.37l.61-5.72h-7.37l.71-7.2h-5.72l-.77 7.2h-6.65l-.61 5.72h6.66zm18.04-17.98l-4.29 40.37h5.83l2.31-22.39h14.46l-2.36 22.39h5.72l2.97-28.11h-20.19l1.32-12.26h-5.77z" data-gra="path-name" fill="#fcbd05"/></svg>
